<svg width="20" height="18" viewBox="0 0 20 18" fill="#FF4848" xmlns="http://www.w3.org/2000/svg">
<path d="M8 12L13.19 9L8 6V12ZM19.56 4.17C19.69 4.64 19.78 5.27 19.84 6.07C19.91 6.87 19.94 7.56 19.94 8.16L20 9C20 11.19 19.84 12.8 19.56 13.83C19.31 14.73 18.73 15.31 17.83 15.56C17.36 15.69 16.5 15.78 15.18 15.84C13.88 15.91 12.69 15.94 11.59 15.94L10 16C5.81 16 3.2 15.84 2.17 15.56C1.27 15.31 0.69 14.73 0.44 13.83C0.31 13.36 0.22 12.73 0.16 11.93C0.0900001 11.13 0.0599999 10.44 0.0599999 9.84L0 9C0 6.81 0.16 5.2 0.44 4.17C0.69 3.27 1.27 2.69 2.17 2.44C2.64 2.31 3.5 2.22 4.82 2.16C6.12 2.09 7.31 2.06 8.41 2.06L10 2C14.19 2 16.8 2.16 17.83 2.44C18.73 2.69 19.31 3.27 19.56 4.17Z"/>
</svg>
