<svg width="16" height="16" viewBox="0 0 16 16" fill="none" xmlns="http://www.w3.org/2000/svg">
<path fill-rule="evenodd" clip-rule="evenodd" d="M7.99992 1.33334C4.31937 1.33334 1.33325 4.39606 1.33325 8.17105C1.33325 11.1982 3.24296 13.7623 5.88185 14.6526C6.22907 14.7238 6.33326 14.5102 6.33326 14.3321C6.33326 14.154 6.33326 13.7267 6.33326 13.1569C4.49298 13.5842 4.07631 12.2309 4.07631 12.2309C3.76381 11.4474 3.34714 11.2338 3.34714 11.2338C2.75686 10.8064 3.38187 10.8064 3.38187 10.8064C4.04159 10.842 4.3888 11.5187 4.3888 11.5187C4.97908 12.5515 5.95131 12.2665 6.33326 12.0885C6.4027 11.6611 6.5763 11.3406 6.74991 11.1625C5.25685 10.9845 3.72909 10.4147 3.72909 7.7793C3.72909 7.03143 3.97215 6.42601 4.42354 5.92742C4.35409 5.74936 4.11102 5.07271 4.49296 4.11116C4.49296 4.11116 5.04854 3.9331 6.33326 4.82342C6.85409 4.68097 7.44436 4.60974 7.99992 4.60974C8.55547 4.60974 9.14575 4.68097 9.66658 4.82342C10.9513 3.9331 11.5069 4.11116 11.5069 4.11116C11.8541 5.0371 11.6457 5.74936 11.5763 5.92742C11.993 6.39039 12.2707 7.03143 12.2707 7.7793C12.2707 10.4147 10.7083 10.9845 9.2152 11.1625C9.45825 11.3762 9.66658 11.8036 9.66658 12.4446C9.66658 13.3705 9.66658 14.0828 9.66658 14.3321C9.66658 14.5102 9.77074 14.7238 10.118 14.6526C12.7569 13.7623 14.6666 11.1982 14.6666 8.17105C14.6666 4.39606 11.6805 1.33334 7.99992 1.33334Z" fill="#FF4848"/>
</svg>
