<svg width="16" height="16" viewBox="0 0 16 16" fill="none" xmlns="http://www.w3.org/2000/svg">
<path d="M2.09333 1.89865C2.03667 2.03065 2 2.17532 2 2.33598V13.7273C2 13.8587 2.03 13.98 2.07333 14.0933L7.94 7.98599L2.09333 1.89865Z" fill="#FF4848"/>
<path d="M13.4834 7.14069C13.44 7.11602 12.6874 6.69069 11.6154 6.08469L9.7887 7.98602L11.6014 9.87335C12.714 9.24335 13.484 8.80735 13.484 8.80735C13.8167 8.60535 14.004 8.29469 13.9994 7.95602C13.9947 7.62602 13.802 7.32135 13.4834 7.14069Z" fill="#FF4848"/>
<path d="M3.61072 1.55267L8.86472 7.02334L10.4174 5.40667C7.74072 3.89267 4.20138 1.89001 3.61072 1.55267Z" fill="#FF4848"/>
<path d="M8.86462 8.94867L3.64929 14.378C4.54729 13.8673 7.86529 11.9887 10.404 10.5513L8.86462 8.94867Z" fill="#FF4848"/>
</svg>
