<?xml version="1.0" encoding="UTF-8"?>
<!DOCTYPE svg PUBLIC "-//W3C//DTD SVG 1.1//EN" "http://www.w3.org/Graphics/SVG/1.1/DTD/svg11.dtd">
<svg width="20" height="20" viewBox="0 0 21 21" fill="none" xmlns="http://www.w3.org/2000/svg">
<path d="M8.33342 12.5L12.6584 9.99999L8.33342 7.49999V12.5ZM17.9667 5.97499C18.0751 6.36666 18.1501 6.89166 18.2001 7.55832C18.2584 8.22499 18.2834 8.79999 18.2834 9.29999L18.3334 9.99999C18.3334 11.825 18.2001 13.1667 17.9667 14.025C17.7584 14.775 17.2751 15.2583 16.5251 15.4667C16.1334 15.575 15.4167 15.65 14.3167 15.7C13.2334 15.7583 12.2417 15.7833 11.3251 15.7833L10.0001 15.8333C6.50841 15.8333 4.33341 15.7 3.47508 15.4667C2.72508 15.2583 2.24175 14.775 2.03341 14.025C1.92508 13.6333 1.85008 13.1083 1.80008 12.4417C1.74175 11.775 1.71675 11.2 1.71675 10.7L1.66675 9.99999C1.66675 8.17499 1.80008 6.83332 2.03341 5.97499C2.24175 5.22499 2.72508 4.74166 3.47508 4.53332C3.86675 4.42499 4.58341 4.34999 5.68342 4.29999C6.76675 4.24166 7.75841 4.21666 8.67508 4.21666L10.0001 4.16666C13.4917 4.16666 15.6667 4.29999 16.5251 4.53332C17.2751 4.74166 17.7584 5.22499 17.9667 5.97499Z" fill="#FF4848"/>
</svg>
