<svg width="28" height="23" viewBox="0 0 28 23" fill="none" xmlns="http://www.w3.org/2000/svg">
<path d="M7.448 0.647999C6.04 0.647999 4.792 1.192 3.704 2.27999C2.68 3.304 2.168 4.488 2.168 5.832C2.168 7.112 2.584 8.296 3.416 9.384C4.312 10.408 5.368 10.952 6.584 11.016C6.392 12.68 5.816 14.12 4.856 15.336C3.96 16.552 2.648 17.768 0.92 18.984L2.936 22.536C5.624 21.128 7.928 18.92 9.848 15.912C11.768 12.84 12.728 9.768 12.728 6.696C12.728 4.904 12.184 3.464 11.096 2.376C10.072 1.224 8.856 0.647999 7.448 0.647999ZM22.424 0.647999C21.016 0.647999 19.8 1.192 18.776 2.27999C17.752 3.304 17.24 4.488 17.24 5.832C17.24 7.112 17.656 8.296 18.488 9.384C19.384 10.408 20.44 10.952 21.656 11.016C21.4 12.68 20.792 14.12 19.832 15.336C18.936 16.552 17.624 17.768 15.896 18.984L17.912 22.536C20.6 21.128 22.872 18.92 24.728 15.912C26.648 12.84 27.608 9.768 27.608 6.696C27.608 4.904 27.096 3.464 26.072 2.376C25.048 1.224 23.832 0.647999 22.424 0.647999Z" fill="black" fill-opacity="0.2"/>
</svg>
